<svg width="214" height="60" viewBox="0 0 214 60" fill="none" xmlns="http://www.w3.org/2000/svg">
<path d="M21.1172 37.1406C21.1172 36.4844 21.0156 35.8984 20.8125 35.3828C20.625 34.8516 20.2734 34.375 19.7578 33.9531C19.2578 33.5156 18.5469 33.0938 17.625 32.6875C16.7188 32.2656 15.5469 31.8281 14.1094 31.375C12.5156 30.875 11.0312 30.3125 9.65625 29.6875C8.28125 29.0625 7.07031 28.3359 6.02344 27.5078C4.99219 26.6797 4.1875 25.7266 3.60938 24.6484C3.03125 23.5547 2.74219 22.2891 2.74219 20.8516C2.74219 19.4453 3.03906 18.1641 3.63281 17.0078C4.24219 15.8516 5.10156 14.8594 6.21094 14.0312C7.32031 13.1875 8.625 12.5391 10.125 12.0859C11.6406 11.6328 13.3125 11.4062 15.1406 11.4062C17.6719 11.4062 19.8594 11.8672 21.7031 12.7891C23.5625 13.7109 25 14.9609 26.0156 16.5391C27.0312 18.1172 27.5391 19.8906 27.5391 21.8594H21.1172C21.1172 20.7969 20.8906 19.8594 20.4375 19.0469C20 18.2344 19.3281 17.5938 18.4219 17.125C17.5312 16.6562 16.4062 16.4219 15.0469 16.4219C13.7344 16.4219 12.6406 16.6172 11.7656 17.0078C10.9062 17.3984 10.2578 17.9297 9.82031 18.6016C9.39844 19.2734 9.1875 20.0234 9.1875 20.8516C9.1875 21.4766 9.33594 22.0391 9.63281 22.5391C9.92969 23.0234 10.375 23.4844 10.9688 23.9219C11.5625 24.3438 12.2969 24.7422 13.1719 25.1172C14.0625 25.4766 15.0938 25.8359 16.2656 26.1953C18.1406 26.7578 19.7812 27.3828 21.1875 28.0703C22.6094 28.7578 23.7891 29.5391 24.7266 30.4141C25.6797 31.2891 26.3906 32.2734 26.8594 33.3672C27.3438 34.4609 27.5859 35.7031 27.5859 37.0938C27.5859 38.5625 27.2969 39.875 26.7188 41.0312C26.1406 42.1875 25.3125 43.1719 24.2344 43.9844C23.1562 44.7969 21.8594 45.4141 20.3438 45.8359C18.8438 46.2578 17.1641 46.4688 15.3047 46.4688C13.6484 46.4688 12.0078 46.25 10.3828 45.8125C8.77344 45.3594 7.3125 44.6875 6 43.7969C4.6875 42.8906 3.64062 41.75 2.85938 40.375C2.07812 38.9844 1.6875 37.3594 1.6875 35.5H8.15625C8.15625 36.5781 8.32812 37.5 8.67188 38.2656C9.03125 39.0156 9.53125 39.6328 10.1719 40.1172C10.8281 40.5859 11.5938 40.9297 12.4688 41.1484C13.3438 41.3672 14.2891 41.4766 15.3047 41.4766C16.6172 41.4766 17.6953 41.2969 18.5391 40.9375C19.3984 40.5625 20.0391 40.0469 20.4609 39.3906C20.8984 38.7344 21.1172 37.9844 21.1172 37.1406ZM45.6797 33.5547H36.8906V28.4922H45.6797C47.1172 28.4922 48.2812 28.2578 49.1719 27.7891C50.0781 27.3047 50.7422 26.6484 51.1641 25.8203C51.5859 24.9766 51.7969 24.0156 51.7969 22.9375C51.7969 21.8906 51.5859 20.9141 51.1641 20.0078C50.7422 19.1016 50.0781 18.3672 49.1719 17.8047C48.2812 17.2422 47.1172 16.9609 45.6797 16.9609H39V46H32.5547V11.875H45.6797C48.3359 11.875 50.6016 12.3516 52.4766 13.3047C54.3672 14.2422 55.8047 15.5469 56.7891 17.2188C57.7891 18.875 58.2891 20.7656 58.2891 22.8906C58.2891 25.0938 57.7891 26.9922 56.7891 28.5859C55.8047 30.1797 54.3672 31.4062 52.4766 32.2656C50.6016 33.125 48.3359 33.5547 45.6797 33.5547ZM90.9844 28.0703V29.8281C90.9844 32.4062 90.6406 34.7266 89.9531 36.7891C89.2656 38.8359 88.2891 40.5781 87.0234 42.0156C85.7578 43.4531 84.25 44.5547 82.5 45.3203C80.75 46.0859 78.8047 46.4688 76.6641 46.4688C74.5547 46.4688 72.6172 46.0859 70.8516 45.3203C69.1016 44.5547 67.5859 43.4531 66.3047 42.0156C65.0234 40.5781 64.0312 38.8359 63.3281 36.7891C62.625 34.7266 62.2734 32.4062 62.2734 29.8281V28.0703C62.2734 25.4766 62.625 23.1562 63.3281 21.1094C64.0312 19.0625 65.0156 17.3203 66.2812 15.8828C67.5469 14.4297 69.0547 13.3203 70.8047 12.5547C72.5703 11.7891 74.5078 11.4062 76.6172 11.4062C78.7578 11.4062 80.7031 11.7891 82.4531 12.5547C84.2031 13.3203 85.7109 14.4297 86.9766 15.8828C88.2578 17.3203 89.2422 19.0625 89.9297 21.1094C90.6328 23.1562 90.9844 25.4766 90.9844 28.0703ZM84.4688 29.8281V28.0234C84.4688 26.1641 84.2969 24.5312 83.9531 23.125C83.6094 21.7031 83.1016 20.5078 82.4297 19.5391C81.7578 18.5703 80.9297 17.8438 79.9453 17.3594C78.9609 16.8594 77.8516 16.6094 76.6172 16.6094C75.3672 16.6094 74.2578 16.8594 73.2891 17.3594C72.3359 17.8438 71.5234 18.5703 70.8516 19.5391C70.1797 20.5078 69.6641 21.7031 69.3047 23.125C68.9609 24.5312 68.7891 26.1641 68.7891 28.0234V29.8281C68.7891 31.6719 68.9609 33.3047 69.3047 34.7266C69.6641 36.1484 70.1797 37.3516 70.8516 38.3359C71.5391 39.3047 72.3672 40.0391 73.3359 40.5391C74.3047 41.0391 75.4141 41.2891 76.6641 41.2891C77.9141 41.2891 79.0234 41.0391 79.9922 40.5391C80.9609 40.0391 81.7734 39.3047 82.4297 38.3359C83.1016 37.3516 83.6094 36.1484 83.9531 34.7266C84.2969 33.3047 84.4688 31.6719 84.4688 29.8281ZM96.4453 11.875H108.844C111.438 11.875 113.664 12.2656 115.523 13.0469C117.383 13.8281 118.812 14.9844 119.812 16.5156C120.812 18.0469 121.312 19.9297 121.312 22.1641C121.312 23.9297 121 25.4609 120.375 26.7578C119.75 28.0547 118.867 29.1406 117.727 30.0156C116.602 30.8906 115.273 31.5781 113.742 32.0781L111.727 33.1094H100.781L100.734 28.0234H108.914C110.242 28.0234 111.344 27.7891 112.219 27.3203C113.094 26.8516 113.75 26.2031 114.188 25.375C114.641 24.5469 114.867 23.6016 114.867 22.5391C114.867 21.3984 114.648 20.4141 114.211 19.5859C113.773 18.7422 113.109 18.0938 112.219 17.6406C111.328 17.1875 110.203 16.9609 108.844 16.9609H102.891V46H96.4453V11.875ZM115.711 46L107.812 30.7188L114.633 30.6953L122.625 45.6719V46H115.711ZM140.109 11.875V46H133.688V11.875H140.109ZM150.703 11.875V16.9609H123.211V11.875H150.703ZM172.477 37.1406C172.477 36.4844 172.375 35.8984 172.172 35.3828C171.984 34.8516 171.633 34.375 171.117 33.9531C170.617 33.5156 169.906 33.0938 168.984 32.6875C168.078 32.2656 166.906 31.8281 165.469 31.375C163.875 30.875 162.391 30.3125 161.016 29.6875C159.641 29.0625 158.43 28.3359 157.383 27.5078C156.352 26.6797 155.547 25.7266 154.969 24.6484C154.391 23.5547 154.102 22.2891 154.102 20.8516C154.102 19.4453 154.398 18.1641 154.992 17.0078C155.602 15.8516 156.461 14.8594 157.57 14.0312C158.68 13.1875 159.984 12.5391 161.484 12.0859C163 11.6328 164.672 11.4062 166.5 11.4062C169.031 11.4062 171.219 11.8672 173.062 12.7891C174.922 13.7109 176.359 14.9609 177.375 16.5391C178.391 18.1172 178.898 19.8906 178.898 21.8594H172.477C172.477 20.7969 172.25 19.8594 171.797 19.0469C171.359 18.2344 170.688 17.5938 169.781 17.125C168.891 16.6562 167.766 16.4219 166.406 16.4219C165.094 16.4219 164 16.6172 163.125 17.0078C162.266 17.3984 161.617 17.9297 161.18 18.6016C160.758 19.2734 160.547 20.0234 160.547 20.8516C160.547 21.4766 160.695 22.0391 160.992 22.5391C161.289 23.0234 161.734 23.4844 162.328 23.9219C162.922 24.3438 163.656 24.7422 164.531 25.1172C165.422 25.4766 166.453 25.8359 167.625 26.1953C169.5 26.7578 171.141 27.3828 172.547 28.0703C173.969 28.7578 175.148 29.5391 176.086 30.4141C177.039 31.2891 177.75 32.2734 178.219 33.3672C178.703 34.4609 178.945 35.7031 178.945 37.0938C178.945 38.5625 178.656 39.875 178.078 41.0312C177.5 42.1875 176.672 43.1719 175.594 43.9844C174.516 44.7969 173.219 45.4141 171.703 45.8359C170.203 46.2578 168.523 46.4688 166.664 46.4688C165.008 46.4688 163.367 46.25 161.742 45.8125C160.133 45.3594 158.672 44.6875 157.359 43.7969C156.047 42.8906 155 41.75 154.219 40.375C153.438 38.9844 153.047 37.3594 153.047 35.5H159.516C159.516 36.5781 159.688 37.5 160.031 38.2656C160.391 39.0156 160.891 39.6328 161.531 40.1172C162.188 40.5859 162.953 40.9297 163.828 41.1484C164.703 41.3672 165.648 41.4766 166.664 41.4766C167.977 41.4766 169.055 41.2969 169.898 40.9375C170.758 40.5625 171.398 40.0469 171.82 39.3906C172.258 38.7344 172.477 37.9844 172.477 37.1406Z" fill="black"/>
<path d="M196.45 40.8486V31.5469H187.075V25.126H196.45V15.8242H202.7V25.126H212.1V31.5469H202.7V40.8486H196.45Z" fill="url(#paint0_linear_1_4)"/>
<defs>
<linearGradient id="paint0_linear_1_4" x1="185" y1="28" x2="218.5" y2="33.5" gradientUnits="userSpaceOnUse">
<stop stop-color="#00F0FF"/>
<stop offset="0.492708" stop-color="#00B2BD"/>
<stop offset="1" stop-color="#006FAD"/>
</linearGradient>
</defs>
</svg>
